<svg width="228" height="38" viewBox="0 0 228 38" fill="none" xmlns="http://www.w3.org/2000/svg">
<path d="M37.5457 18.935C37.5096 8.56676 29.075 0.192102 18.7079 0.228235C8.34071 0.264369 -0.0360168 8.69685 0.000116458 19.065C0.0362497 29.4332 8.47079 37.8079 18.8379 37.7717C29.2061 37.7366 37.5818 29.3031 37.5457 18.935Z" fill="#2647B4"/>
<path d="M12.0423 13.5019C13.1041 13.5019 13.9649 12.6405 13.9649 11.5789C13.9649 10.5166 13.1043 9.65546 12.0423 9.65546C10.9804 9.65546 10.1199 10.5166 10.1199 11.5789C10.1197 12.6405 10.9804 13.5019 12.0423 13.5019Z" fill="white"/>
<path d="M28.8202 15.4252C27.7411 15.4252 26.8665 16.2998 26.8665 17.379V20.7286C26.8665 21.4984 26.2406 22.1243 25.4712 22.1243C24.7013 22.1243 24.076 21.4984 24.076 20.7286V17.379C24.076 16.2998 23.2003 15.4252 22.1218 15.4252C21.0435 15.4252 20.1676 16.2998 20.1676 17.379V20.7286C20.1676 21.4984 19.5417 22.1243 18.7726 22.1243C18.0022 22.1243 17.3777 21.4984 17.3777 20.7286C17.3777 17.8044 14.9975 15.4252 12.0743 15.4252C9.14928 15.4252 6.77094 17.8044 6.77094 20.7286V24.078C6.77094 25.1567 7.64515 26.0318 8.72428 26.0318C9.80341 26.0318 10.678 25.1567 10.678 24.078V20.7286C10.678 19.9591 11.3035 19.3323 12.0743 19.3323C12.8433 19.3323 13.4696 19.9591 13.4696 20.7286C13.4696 23.6522 15.8479 26.032 18.7726 26.032C20.0415 26.032 21.2082 25.5832 22.1218 24.8362C23.0356 25.5832 24.2019 26.032 25.4714 26.032C28.3961 26.032 30.7748 23.6522 30.7748 20.7286V17.379C30.7744 16.2998 29.8994 15.4252 28.8202 15.4252Z" fill="white"/>
<path d="M49.145 25.5V13.2846H51.1438L51.2549 15.3057C51.551 14.6097 52.0026 14.0693 52.6097 13.6843C53.2316 13.2994 53.8905 13.1069 54.5864 13.1069C55.5192 13.1069 56.3039 13.3512 56.9406 13.8398C57.5921 14.3136 58.0511 14.9355 58.3176 15.7054C58.5842 14.9503 59.0284 14.3284 59.6502 13.8398C60.2721 13.3512 61.0124 13.1069 61.8712 13.1069C63.2482 13.1069 64.3439 13.5881 65.1583 14.5505C65.9875 15.4981 66.402 16.9862 66.402 19.0147V25.5H64.2255V19.0147C64.2255 17.6969 63.9738 16.7419 63.4703 16.1496C62.9817 15.5426 62.3376 15.239 61.5381 15.239C60.7829 15.239 60.1463 15.5426 59.628 16.1496C59.1098 16.7567 58.8507 17.7117 58.8507 19.0147V25.5H56.6741V19.0147C56.6741 17.6969 56.4224 16.7419 55.919 16.1496C55.4304 15.5426 54.7863 15.239 53.9867 15.239C53.2168 15.239 52.5727 15.5796 52.0544 16.2607C51.551 16.9418 51.2993 17.9486 51.2993 19.2812V25.5H49.145ZM68.0274 30.0752L68.6715 28.143C69.1749 28.3503 69.6783 28.4539 70.1817 28.4539C71.3663 28.4539 72.3583 27.3878 73.1579 25.2557L68.2717 13.2846H70.6037L74.1573 22.324L77.6887 13.2846H79.9985L75.3344 25.5C74.6533 27.2768 73.9278 28.5576 73.1579 29.3423C72.3879 30.1271 71.4255 30.5194 70.2706 30.5194C69.4858 30.5194 68.7381 30.3714 68.0274 30.0752ZM84.0286 25.5H81.8742V8.17627H84.0286V25.5ZM87.2098 25.5V13.2846H89.3641V25.5H87.2098ZM86.9211 10.6638C86.9211 10.2788 87.0543 9.95306 87.3208 9.68655C87.6022 9.42003 87.9279 9.28677 88.2981 9.28677C88.6682 9.28677 88.9866 9.42743 89.2531 9.70876C89.5196 9.97527 89.6529 10.2936 89.6529 10.6638C89.6529 11.0339 89.5196 11.3523 89.2531 11.6188C88.9866 11.9001 88.6682 12.0408 88.2981 12.0408C87.9279 12.0408 87.6022 11.9075 87.3208 11.641C87.0543 11.3745 86.9211 11.0488 86.9211 10.6638ZM91.8124 19.3923C91.8124 17.6599 92.3899 16.1792 93.5448 14.9503C94.7145 13.7213 96.1212 13.1069 97.7647 13.1069C98.7419 13.1069 99.6451 13.366 100.474 13.8842C101.318 14.4024 101.933 15.0613 102.318 15.8609L102.429 13.2846H104.428V23.5899C104.428 25.8702 103.813 27.6099 102.584 28.8093C101.355 30.0086 99.7414 30.6083 97.7425 30.6083C96.706 30.6083 95.7214 30.3862 94.7886 29.942C93.8557 29.5126 93.1006 28.9203 92.5232 28.1652L94.1667 26.8992C94.5961 27.4026 95.1365 27.795 95.788 28.0763C96.4395 28.3725 97.128 28.5205 97.8535 28.5205C99.1269 28.5205 100.178 28.1356 101.007 27.3656C101.837 26.6105 102.251 25.4704 102.251 23.9453V23.0125C101.881 23.7676 101.281 24.3969 100.452 24.9003C99.6229 25.4038 98.7271 25.6555 97.7647 25.6555C96.1212 25.6555 94.7145 25.041 93.5448 23.812C92.3899 22.5831 91.8124 21.1098 91.8124 19.3923ZM94.0112 19.3923C94.0112 20.5324 94.411 21.5022 95.2106 22.3018C96.0101 23.1013 96.9799 23.5011 98.1201 23.5011C99.2602 23.5011 100.23 23.1013 101.03 22.3018C101.844 21.5022 102.251 20.5324 102.251 19.3923C102.251 18.2522 101.844 17.2749 101.03 16.4606C100.23 15.6462 99.2602 15.239 98.1201 15.239C96.9947 15.239 96.0249 15.6462 95.2106 16.4606C94.411 17.2749 94.0112 18.2522 94.0112 19.3923ZM107.598 8.17627H109.752V15.3945C110.108 14.7134 110.611 14.1655 111.262 13.751C111.929 13.3216 112.691 13.1069 113.55 13.1069C115.046 13.1069 116.252 13.6325 117.17 14.6838C118.088 15.7202 118.547 17.2527 118.547 19.2812V25.5H116.371V19.2812C116.371 17.9634 116.06 16.964 115.438 16.2829C114.816 15.587 114.024 15.239 113.061 15.239C112.114 15.239 111.322 15.5796 110.685 16.2607C110.063 16.9418 109.752 17.9486 109.752 19.2812V25.5H107.598V8.17627ZM120.369 13.2846H122.079L122.346 9.28677H124.167V13.2846H127.099V15.239H124.167V20.9248C124.167 21.7835 124.367 22.4424 124.767 22.9014C125.166 23.3604 125.714 23.5899 126.41 23.5899C126.765 23.5899 127.076 23.5381 127.343 23.4345L127.898 25.3667C127.395 25.5888 126.802 25.6999 126.121 25.6999C124.907 25.6999 123.915 25.3149 123.145 24.545C122.39 23.7602 122.013 22.5609 122.013 20.947V15.239H120.369V13.2846ZM137.137 22.1685C137.552 22.6275 138.122 22.9977 138.847 23.279C139.573 23.5455 140.321 23.6788 141.091 23.6788C141.905 23.6788 142.557 23.5307 143.045 23.2346C143.549 22.9237 143.8 22.5091 143.8 21.9908C143.8 21.5318 143.534 21.1691 143.001 20.9025C142.468 20.636 141.824 20.4213 141.068 20.2585C140.313 20.0956 139.558 19.9031 138.803 19.681C138.048 19.4441 137.404 19.0665 136.871 18.5483C136.338 18.0153 136.071 17.3268 136.071 16.4828C136.071 15.4759 136.493 14.6616 137.337 14.0397C138.181 13.403 139.299 13.0847 140.691 13.0847C142.838 13.0847 144.474 13.7584 145.599 15.1058L144.267 16.4384C143.882 15.9645 143.356 15.6166 142.69 15.3945C142.038 15.1576 141.394 15.0391 140.758 15.0391C140.002 15.0391 139.395 15.1724 138.936 15.4389C138.477 15.6906 138.248 16.046 138.248 16.505C138.248 16.9048 138.514 17.2305 139.047 17.4822C139.58 17.7191 140.224 17.919 140.98 18.0819C141.735 18.23 142.49 18.4224 143.245 18.6593C144 18.8963 144.644 19.2886 145.177 19.8365C145.71 20.3843 145.977 21.0802 145.977 21.9242C145.977 23.168 145.503 24.1156 144.555 24.7671C143.623 25.4038 142.468 25.7221 141.091 25.7221C140.113 25.7221 139.129 25.5518 138.137 25.2113C137.145 24.8559 136.316 24.3155 135.649 23.5899L137.137 22.1685ZM147.237 30.0752L147.881 28.143C148.384 28.3503 148.888 28.4539 149.391 28.4539C150.576 28.4539 151.568 27.3878 152.367 25.2557L147.481 13.2846H149.813L153.367 22.324L156.898 13.2846H159.208L154.544 25.5C153.863 27.2768 153.137 28.5576 152.367 29.3423C151.597 30.1271 150.635 30.5194 149.48 30.5194C148.695 30.5194 147.948 30.3714 147.237 30.0752ZM161.95 22.1685C162.365 22.6275 162.935 22.9977 163.66 23.279C164.386 23.5455 165.133 23.6788 165.903 23.6788C166.718 23.6788 167.369 23.5307 167.858 23.2346C168.361 22.9237 168.613 22.5091 168.613 21.9908C168.613 21.5318 168.346 21.1691 167.813 20.9025C167.28 20.636 166.636 20.4213 165.881 20.2585C165.126 20.0956 164.371 19.9031 163.616 19.681C162.861 19.4441 162.216 19.0665 161.683 18.5483C161.15 18.0153 160.884 17.3268 160.884 16.4828C160.884 15.4759 161.306 14.6616 162.15 14.0397C162.994 13.403 164.112 13.0847 165.504 13.0847C167.65 13.0847 169.287 13.7584 170.412 15.1058L169.079 16.4384C168.694 15.9645 168.169 15.6166 167.502 15.3945C166.851 15.1576 166.207 15.0391 165.57 15.0391C164.815 15.0391 164.208 15.1724 163.749 15.4389C163.29 15.6906 163.06 16.046 163.06 16.505C163.06 16.9048 163.327 17.2305 163.86 17.4822C164.393 17.7191 165.037 17.919 165.792 18.0819C166.547 18.23 167.303 18.4224 168.058 18.6593C168.813 18.8963 169.457 19.2886 169.99 19.8365C170.523 20.3843 170.789 21.0802 170.789 21.9242C170.789 23.168 170.316 24.1156 169.368 24.7671C168.435 25.4038 167.28 25.7221 165.903 25.7221C164.926 25.7221 163.941 25.5518 162.949 25.2113C161.957 24.8559 161.128 24.3155 160.462 23.5899L161.95 22.1685ZM172.272 13.2846H173.982L174.248 9.28677H176.07V13.2846H179.001V15.239H176.07V20.9248C176.07 21.7835 176.269 22.4424 176.669 22.9014C177.069 23.3604 177.617 23.5899 178.313 23.5899C178.668 23.5899 178.979 23.5381 179.246 23.4345L179.801 25.3667C179.297 25.5888 178.705 25.6999 178.024 25.6999C176.81 25.6999 175.818 25.3149 175.048 24.545C174.293 23.7602 173.915 22.5609 173.915 20.947V15.239H172.272V13.2846ZM183.189 14.9503C184.403 13.7362 185.862 13.1291 187.564 13.1291C189.326 13.1291 190.8 13.7362 191.984 14.9503C193.169 16.1644 193.761 17.6377 193.761 19.3701C193.761 19.4293 193.739 19.7698 193.694 20.3917H183.7C183.863 21.3245 184.329 22.1019 185.099 22.7238C185.884 23.3308 186.802 23.6344 187.853 23.6344C189.319 23.6344 190.481 23.1087 191.34 22.0575L193.095 23.1457C192.517 23.9157 191.755 24.5302 190.807 24.9892C189.859 25.4482 188.875 25.6777 187.853 25.6777C186.017 25.6777 184.477 25.0632 183.233 23.8343C181.99 22.6053 181.368 21.1172 181.368 19.3701C181.368 17.6525 181.975 16.1792 183.189 14.9503ZM183.678 18.6149H191.518C191.459 17.6525 191.059 16.8381 190.318 16.1718C189.593 15.4907 188.682 15.1502 187.587 15.1502C186.521 15.1502 185.617 15.4907 184.877 16.1718C184.151 16.8381 183.752 17.6525 183.678 18.6149ZM196.199 25.5V13.2846H198.198L198.309 15.3057C198.605 14.6097 199.057 14.0693 199.664 13.6843C200.285 13.2994 200.944 13.1069 201.64 13.1069C202.573 13.1069 203.358 13.3512 203.995 13.8398C204.646 14.3136 205.105 14.9355 205.372 15.7054C205.638 14.9503 206.082 14.3284 206.704 13.8398C207.326 13.3512 208.066 13.1069 208.925 13.1069C210.302 13.1069 211.398 13.5881 212.212 14.5505C213.041 15.4981 213.456 16.9862 213.456 19.0147V25.5H211.279V19.0147C211.279 17.6969 211.028 16.7419 210.524 16.1496C210.036 15.5426 209.392 15.239 208.592 15.239C207.837 15.239 207.2 15.5426 206.682 16.1496C206.164 16.7567 205.905 17.7117 205.905 19.0147V25.5H203.728V19.0147C203.728 17.6969 203.476 16.7419 202.973 16.1496C202.484 15.5426 201.84 15.239 201.041 15.239C200.271 15.239 199.627 15.5796 199.108 16.2607C198.605 16.9418 198.353 17.9486 198.353 19.2812V25.5H196.199ZM217.258 22.1685C217.672 22.6275 218.242 22.9977 218.968 23.279C219.693 23.5455 220.441 23.6788 221.211 23.6788C222.026 23.6788 222.677 23.5307 223.166 23.2346C223.669 22.9237 223.921 22.5091 223.921 21.9908C223.921 21.5318 223.654 21.1691 223.121 20.9025C222.588 20.636 221.944 20.4213 221.189 20.2585C220.434 20.0956 219.679 19.9031 218.924 19.681C218.168 19.4441 217.524 19.0665 216.991 18.5483C216.458 18.0153 216.192 17.3268 216.192 16.4828C216.192 15.4759 216.614 14.6616 217.458 14.0397C218.302 13.403 219.42 13.0847 220.811 13.0847C222.958 13.0847 224.594 13.7584 225.72 15.1058L224.387 16.4384C224.002 15.9645 223.477 15.6166 222.81 15.3945C222.159 15.1576 221.515 15.0391 220.878 15.0391C220.123 15.0391 219.516 15.1724 219.057 15.4389C218.598 15.6906 218.368 16.046 218.368 16.505C218.368 16.9048 218.635 17.2305 219.168 17.4822C219.701 17.7191 220.345 17.919 221.1 18.0819C221.855 18.23 222.61 18.4224 223.366 18.6593C224.121 18.8963 224.765 19.2886 225.298 19.8365C225.831 20.3843 226.097 21.0802 226.097 21.9242C226.097 23.168 225.624 24.1156 224.676 24.7671C223.743 25.4038 222.588 25.7221 221.211 25.7221C220.234 25.7221 219.249 25.5518 218.257 25.2113C217.265 24.8559 216.436 24.3155 215.77 23.5899L217.258 22.1685Z" fill="#0F1233"/>
</svg>
